<svg xmlns="http://www.w3.org/2000/svg" width="682.667" height="682.667" preserveAspectRatio="xMidYMid meet" version="1.0" viewBox="0 0 512 512"><metadata>Created by potrace 1.14, written by Peter Selinger 2001-2017</metadata><g fill="#000" stroke="none"><path d="M0 2560 l0 -2560 2560 0 2560 0 0 2560 0 2560 -2560 0 -2560 0 0 -2560z m3165 2091 c209 -9 266 -15 346 -35 112 -28 199 -70 263 -125 70 -61 166 -176 166 -200 0 -12 6 -21 15 -21 8 0 17 -10 19 -22 12 -64 27 -283 21 -320 -28 -184 -109 -347 -252 -510 -32 -36 -94 -108 -138 -159 -124 -144 -338 -380 -736 -815 -438 -477 -560 -615 -557 -631 3 -11 307 -412 614 -809 77 -100 154 -203 170 -228 l29 -46 417 0 418 0 -253 328 c-139 180 -299 381 -355 447 -173 201 -262 348 -262 430 0 47 8 64 41 80 87 46 170 -12 330 -230 40 -55 245 -321 455 -591 211 -270 392 -509 404 -532 44 -85 15 -151 -76 -173 -21 -5 -230 -11 -462 -14 -233 -3 -427 -7 -432 -10 -4 -3 -62 -1 -129 5 -194 14 -253 51 -405 254 -45 61 -148 199 -228 306 -80 108 -202 265 -271 350 -206 251 -297 390 -297 453 0 21 133 175 602 699 331 370 660 736 731 813 336 365 453 600 392 786 -23 68 -124 173 -205 212 -121 59 -113 59 -1125 70 -656 7 -993 6 -1143 -1 -116 -6 -217 -14 -222 -17 -7 -4 -10 -386 -10 -1101 l0 -1095 31 23 c17 13 86 86 153 163 147 170 379 428 496 551 70 74 488 552 539 617 14 17 5 18 -185 15 -238 -3 -298 8 -333 66 -44 71 -12 148 74 179 45 16 81 17 380 11 414 -7 473 -18 490 -95 8 -35 -19 -97 -72 -161 -37 -46 -886 -999 -1148 -1287 -71 -80 -193 -217 -271 -306 -212 -242 -282 -279 -371 -190 l-33 33 2 1359 3 1358 23 42 c26 50 48 63 116 72 91 11 1971 13 2231 2z" transform="translate(0.000000,512.000000) scale(0.100000,-0.100000)"/></g></svg>