<svg xmlns="http://www.w3.org/2000/svg" width="20.93" height="22" viewBox="0 0 20.93 22">
  <title>waving-hand</title>
  <g>
    <path d="M9.47,1.36l.18,1.47c-1.28-.3-1.48-.63-2.75,0-.36.17-.81.56-1,.64C4.37,4,4.28,2.81,2.63,5.15l-.15.22c-.73.84-2,.77-2,3.14,0,.7.22.65.38,1.11.44,1.27-1.27,1.05.36,3.47-4.32,0-1.65,7.7,3.85,7.7a2.65,2.65,0,0,0,1.33-.68c.38-.46.32-.93.32-1.7,3,2,1.87,3.67,7.33,3.67,1.77,0,3.38-1.35,4.27-2.34C20.54,17.26,19.92,12,19.92,8A2.91,2.91,0,0,0,17,4.84C16.45,2.56,14.47.08,11.85.08h0c-.86,0-2.34,0-2.34,1.28Z" transform="translate(0.93 -0.08)" fill-rule="evenodd"/>
    <path d="M7,4.9c.74,1.37,4.3,3.72,4.36,5.11-.81-.08-.87-.39-1.37-.9L6.66,5.77C5.77,5,4.5,4.16,3.88,6.09a45.21,45.21,0,0,1,5.49,5.57C9.28,12.85,6,9.09,5.24,8.33l-1-1A3.31,3.31,0,0,1,3.94,7C3,6.78,2.47,6.84,2.15,7.6c0,.89.68,1.22,1.19,1.72l2.94,2.93c.48.48,1.07.78,1.19,1.61-1,0-1.19-.57-2.36-1.73C3.66,10.68,4,10.59,2.68,10.53c-2.21,1,2,3.64,4.47,6.35,2.08,2.28,4.73,4.95,8.19,3.37s3.06-4.81,3.06-9.17c0-1.59.57-4.67-1.24-4.79-2.23-.15-1.27,3-1.56,4.52a1.92,1.92,0,0,1-.63.83c-1,1-2.64,2.08-1.87,4.25a4.9,4.9,0,0,0,.47.82,1.26,1.26,0,0,1,.2.48c.06.32,0,.21,0,.39-1.13,0-1.77-2.45-1.29-3.9a8.07,8.07,0,0,1,2.74-3.19L9.37,4.57a1.54,1.54,0,0,0-2-.36c-.62.46-.32.25-.4.69Z" transform="translate(0.93 -0.08)" fill="#fec73c" fill-rule="evenodd"/>
    <path d="M3.94,7a3.31,3.31,0,0,0,.28.33l1,1c.76.76,4,4.52,4.13,3.33A45.21,45.21,0,0,0,3.88,6.09Z" transform="translate(0.93 -0.08)" fill="#d58e02" fill-rule="evenodd"/>
    <path d="M15.6,10.81l-.42-.32a8.07,8.07,0,0,0-2.74,3.19c-.48,1.45.16,3.89,1.29,3.9.07-.18.1-.07,0-.39a1.26,1.26,0,0,0-.2-.48,4.9,4.9,0,0,1-.47-.82c-.77-2.17.88-3.28,1.87-4.25A1.92,1.92,0,0,0,15.6,10.81Z" transform="translate(0.93 -0.08)" fill="#d58e02" fill-rule="evenodd"/>
    <path d="M2.68,10.53c1.35.06,1,.15,2.43,1.6,1.17,1.16,1.39,1.75,2.36,1.73-.12-.83-.71-1.13-1.19-1.61L3.34,9.32c-.51-.5-1.19-.83-1.19-1.72a1.16,1.16,0,0,0,.09,1.54l1,1s-.09,0-.11.09Z" transform="translate(0.93 -0.08)" fill="#d58e02" fill-rule="evenodd"/>
    <path d="M5.32,19c-.21-.26.08-.21-.79-.37a2.68,2.68,0,0,1-.89-.21C1.15,17.4,1.51,15,.85,14.53c-1.07.87.55,3,1,3.45A4.39,4.39,0,0,0,4.37,19.3C5.2,19.38,5,19.42,5.32,19Z" transform="translate(0.93 -0.08)" fill="#30cff4" fill-rule="evenodd"/>
    <path d="M10.87,1.73c.46.84.23.16,1.62.64,2.44.85,2.16,3.06,2.69,3.87C16.45,5.81,15,2.05,12,1.52,10.72,1.29,11,1.6,10.87,1.73Z" transform="translate(0.93 -0.08)" fill="#30cff4" fill-rule="evenodd"/>
    <path d="M6.66,5.77,10,9.11c.5.51.56.82,1.37.9C11.27,8.62,7.71,6.27,7,4.9c-.16.22,0-.05-.18.34C6.79,5.26,6.67,5.73,6.66,5.77Z" transform="translate(0.93 -0.08)" fill="#d58e02" fill-rule="evenodd"/>
    <path d="M10.88,3.74c.27.67-.35.18.61.52,2,.7.65,1.3,1.83,2,.64-1-.26-2.17-1.23-2.55S10.89,3.74,10.88,3.74Z" transform="translate(0.93 -0.08)" fill="#30cff4" fill-rule="evenodd"/>
    <path d="M5.32,17c-.54-.79-.76-.08-1.55-.91s-.1-1.09-.9-1.5c0,0-.6,0-.1,1.22C3.17,16.77,4.62,17.73,5.32,17Z" transform="translate(0.93 -0.08)" fill="#30cff4" fill-rule="evenodd"/>
  </g>
</svg>
