<?xml version="1.0" standalone="no"?>
<!DOCTYPE svg PUBLIC "-//W3C//DTD SVG 20010904//EN"
 "http://www.w3.org/TR/2001/REC-SVG-20010904/DTD/svg10.dtd">
<svg version="1.0" xmlns="http://www.w3.org/2000/svg"
 width="720.000000pt" height="720.000000pt" viewBox="0 0 720.000000 720.000000"
 preserveAspectRatio="xMidYMid meet">
<metadata>
Created by potrace 1.11, written by Peter Selinger 2001-2013
</metadata>
<g transform="translate(0.000000,720.000000) scale(0.100000,-0.100000)"
fill="#000000" stroke="none">
<path d="M3772 7177 c-7 -8 -24 -12 -43 -9 -24 4 -30 2 -24 -8 5 -9 0 -8 -15
3 -20 14 -24 14 -38 1 -8 -9 -18 -11 -21 -7 -8 13 -51 11 -51 -2 0 -5 -5 -3
-10 5 -9 13 -11 13 -20 0 -5 -8 -10 -10 -10 -4 0 6 -7 11 -15 11 -8 0 -15 -4
-15 -7 0 -4 -13 -6 -30 -5 -16 1 -30 -2 -30 -7 0 -6 -8 -4 -17 3 -14 12 -15
12 -9 0 7 -10 3 -12 -13 -6 -12 4 -21 2 -21 -4 0 -6 -5 -11 -11 -11 -5 0 -7 5
-3 12 5 7 3 8 -7 2 -8 -5 -25 -10 -39 -12 -13 -2 -28 -9 -32 -15 -6 -9 -8 -8
-8 2 0 11 -3 11 -17 0 -15 -12 -16 -12 -8 1 8 13 7 13 -8 1 -14 -11 -17 -11
-17 0 0 12 -2 12 -9 1 -5 -9 -20 -12 -40 -9 -17 3 -34 0 -37 -5 -5 -7 -2 -8 6
-3 9 6 11 4 5 -4 -5 -9 -10 -10 -18 -2 -13 13 -30 15 -23 2 7 -10 -9 -8 -38 4
-12 5 -21 3 -27 -6 -7 -12 -9 -12 -9 1 0 13 -1 13 -10 0 -5 -8 -10 -10 -10 -5
0 6 -13 10 -30 11 -17 1 -27 -3 -23 -9 4 -6 1 -7 -8 -1 -8 4 -32 10 -55 12
-31 2 -41 -1 -41 -12 0 -8 3 -14 6 -12 9 6 31 -21 23 -28 -3 -4 1 -4 11 0 10
3 17 1 17 -5 0 -6 3 -10 8 -10 19 3 35 -2 28 -8 -8 -8 -13 -9 -41 -12 -8 0
-15 -9 -16 -18 0 -11 -3 -13 -6 -5 -6 15 -33 16 -33 1 0 -8 -6 -7 -17 2 -11
10 -14 10 -9 2 5 -9 0 -13 -14 -13 -12 0 -18 -4 -15 -10 4 -7 -3 -7 -20 0 -14
5 -24 6 -21 2 7 -11 -64 -33 -77 -25 -6 4 -7 1 -2 -7 6 -10 4 -12 -8 -7 -9 3
-18 -1 -21 -10 -4 -10 -14 -13 -27 -10 -12 3 -22 0 -26 -9 -3 -8 -11 -14 -18
-14 -7 0 -29 -11 -49 -25 -20 -13 -36 -22 -36 -18 0 3 -8 -2 -19 -11 -10 -9
-28 -18 -38 -19 -14 -1 -19 -7 -16 -22 2 -11 1 -14 -3 -8 -4 10 -11 9 -30 -3
-13 -9 -21 -20 -18 -25 3 -5 2 -8 -3 -7 -15 5 -83 -46 -83 -62 0 -13 -1 -13
-10 0 -8 12 -10 10 -10 -10 0 -20 -2 -22 -10 -10 -8 13 -10 12 -10 -2 0 -10
-3 -17 -8 -15 -4 1 -8 -1 -10 -5 -5 -18 -43 -48 -52 -43 -6 4 -7 -1 -3 -11 4
-12 3 -15 -5 -10 -8 5 -10 1 -5 -10 4 -11 2 -15 -4 -11 -6 4 -13 -3 -16 -14
-3 -12 -10 -18 -16 -14 -6 3 -11 -1 -11 -10 0 -9 -7 -23 -15 -32 -8 -8 -12
-20 -8 -26 3 -7 3 -9 -2 -5 -10 10 -34 -21 -35 -45 0 -10 -4 -16 -9 -13 -10 7
-21 -17 -21 -45 0 -10 -4 -19 -10 -19 -5 0 -10 -5 -10 -11 0 -5 5 -7 10 -4 6
3 10 1 10 -4 0 -6 -8 -11 -17 -12 -11 0 -13 -3 -5 -6 6 -2 12 -9 12 -14 0 -6
-4 -7 -10 -4 -14 9 -12 -9 3 -24 10 -10 9 -11 -6 -5 -13 5 -16 2 -11 -10 4
-10 1 -16 -7 -16 -11 0 -11 -3 1 -10 13 -9 13 -10 0 -10 -8 0 -21 -9 -28 -20
-7 -12 -18 -18 -25 -14 -7 4 -9 4 -5 -1 4 -4 2 -13 -5 -21 -33 -37 -37 -44
-37 -65 0 -5 -4 -8 -9 -4 -5 3 -13 0 -17 -6 -4 -8 -3 -9 4 -5 7 4 12 1 12 -9
0 -9 -4 -14 -9 -11 -5 3 -11 -8 -15 -25 -4 -20 -10 -28 -17 -23 -8 4 -9 3 -5
-5 4 -6 2 -19 -6 -28 -11 -14 -11 -16 2 -8 13 8 13 7 1 -8 -7 -9 -10 -17 -5
-17 5 0 2 -5 -6 -10 -17 -11 -23 -53 -6 -43 6 4 6 0 -1 -9 -7 -8 -10 -18 -6
-21 3 -4 2 -7 -3 -7 -5 0 -10 -9 -10 -19 0 -11 5 -17 11 -14 5 4 1 -4 -10 -16
-24 -28 -23 -24 -5 -46 9 -11 10 -16 3 -11 -8 4 -13 2 -13 -8 0 -8 5 -16 12
-18 8 -3 8 -9 -1 -24 -12 -19 -12 -19 -6 1 5 16 4 18 -6 8 -10 -10 -10 -16 -2
-24 9 -9 8 -15 -3 -26 -8 -8 -14 -19 -14 -26 0 -6 7 -2 15 9 15 19 15 19 8 -1
-3 -11 -11 -23 -17 -27 -7 -5 -6 -8 3 -8 11 0 11 -3 0 -17 -9 -11 -10 -14 -2
-9 9 5 11 2 7 -8 -3 -9 -10 -14 -14 -11 -5 3 -12 1 -15 -5 -4 -6 -1 -9 6 -8 6
2 14 -3 17 -11 3 -10 0 -11 -9 -5 -12 7 -12 5 0 -9 8 -11 9 -17 3 -17 -6 0 -9
-7 -6 -15 4 -9 0 -15 -7 -15 -11 0 -11 -3 1 -10 13 -9 13 -11 0 -20 -13 -9
-13 -10 0 -10 12 0 13 -2 1 -9 -7 -5 -10 -14 -7 -20 4 -6 2 -11 -5 -11 -8 0
-8 -4 -1 -13 8 -10 7 -21 -4 -42 -10 -19 -11 -32 -5 -38 7 -7 5 -15 -7 -24 -9
-8 -11 -12 -4 -8 10 5 11 0 6 -22 -4 -15 -11 -31 -17 -34 -5 -4 -3 -9 4 -11
11 -4 12 -8 2 -20 -7 -8 -10 -18 -6 -22 12 -12 11 -47 -1 -37 -7 6 -11 2 -11
-14 0 -13 3 -21 6 -20 9 6 4 -34 -6 -42 -4 -5 -5 -2 -1 5 4 6 3 12 -3 12 -5 0
-9 -9 -8 -19 0 -11 4 -18 8 -15 4 2 6 -4 4 -13 -2 -10 -4 -22 -4 -26 -1 -5 -7
-5 -13 -1 -10 6 -10 4 0 -7 14 -16 16 -33 2 -24 -5 3 -10 1 -10 -4 0 -6 5 -11
11 -11 8 0 8 -4 0 -13 -6 -9 -7 -17 -1 -23 6 -6 4 -19 -4 -36 -8 -15 -10 -31
-5 -39 4 -7 5 -17 2 -22 -3 -5 -7 -28 -10 -50 -7 -59 -10 -82 -13 -82 -1 0 -4
-27 -6 -59 -3 -33 -7 -62 -9 -65 -3 -2 0 -10 6 -17 9 -10 7 -15 -5 -20 -9 -3
-13 -11 -9 -18 12 -18 12 -36 0 -36 -6 0 -2 -7 9 -15 11 -9 13 -13 4 -10 -11
4 -16 -3 -16 -25 -1 -16 2 -28 6 -25 4 2 5 -7 2 -20 -2 -15 -9 -22 -16 -18 -6
3 -2 -3 8 -15 11 -12 16 -22 11 -22 -4 0 -1 -8 6 -17 13 -16 12 -17 -4 -4 -12
9 -17 10 -17 2 0 -7 -5 -9 -10 -6 -6 4 -34 9 -61 11 -28 2 -55 7 -60 10 -5 3
-9 0 -9 -7 0 -8 -5 -7 -17 2 -11 10 -14 10 -9 2 7 -13 -4 -17 -33 -14 -7 2
-10 -2 -7 -7 7 -12 -22 -24 -36 -15 -6 3 -9 2 -6 -3 6 -11 -59 -74 -67 -65 -4
3 -6 2 -4 -4 5 -22 -14 -65 -30 -65 -14 0 -14 -2 -1 -10 13 -9 7 -14 -12 -11
-4 0 -5 -6 -2 -14 4 -8 11 -12 17 -8 6 3 7 1 3 -6 -4 -6 -11 -9 -16 -6 -10 6
-19 -23 -23 -70 -1 -16 -6 -33 -12 -37 -6 -5 -5 -8 4 -8 11 0 11 -3 1 -15 -10
-12 -10 -15 1 -15 9 0 10 -3 4 -8 -14 -10 -17 -32 -4 -32 8 0 8 -5 -1 -15 -8
-9 -9 -15 -2 -15 6 0 9 -9 7 -20 -2 -11 2 -20 8 -20 8 0 8 -3 -2 -9 -9 -6 -10
-11 -2 -15 6 -4 8 -13 4 -19 -11 -18 -12 -38 -2 -31 6 3 7 -5 3 -20 -3 -15 -2
-26 4 -26 5 0 8 -13 6 -30 -2 -16 1 -32 7 -36 8 -5 8 -8 0 -13 -7 -5 -6 -15 3
-33 10 -20 11 -29 2 -39 -8 -9 -8 -10 3 -4 10 6 11 2 6 -15 -5 -17 -4 -21 6
-15 9 6 11 4 6 -7 -3 -9 -1 -20 5 -26 8 -8 8 -16 -2 -27 -7 -8 -8 -15 -2 -15
5 0 9 -23 8 -54 0 -30 2 -52 7 -49 4 2 7 -1 7 -6 0 -6 -6 -11 -12 -11 -9 0 -8
-4 2 -10 12 -8 12 -10 1 -10 -10 0 -11 -3 -2 -13 6 -8 7 -17 3 -21 -7 -8 -11
-43 -15 -138 -1 -31 -6 -54 -11 -51 -4 3 -5 -4 -1 -16 3 -11 2 -21 -3 -21 -5
0 -10 -34 -10 -75 0 -51 3 -73 10 -69 6 4 8 2 5 -3 -10 -15 13 -73 28 -73 7 0
15 -9 18 -20 3 -12 14 -20 26 -20 12 0 21 -5 21 -11 0 -5 5 -7 10 -4 6 4 17 2
24 -4 17 -15 108 -22 99 -8 -4 6 0 8 10 4 9 -3 18 -1 21 6 3 8 5 7 5 -2 1 -11
5 -10 17 5 8 10 13 12 9 4 -4 -8 1 -6 9 4 9 11 16 16 16 12 0 -4 11 5 25 20
14 15 25 23 25 18 0 -5 9 5 20 21 15 22 20 25 20 12 0 -10 4 -16 8 -13 4 2 8
-5 9 -17 2 -55 7 -83 17 -96 9 -12 8 -13 -3 -6 -10 6 -12 4 -6 -5 4 -7 9 -23
11 -34 2 -12 9 -47 17 -78 10 -39 11 -58 4 -58 -6 0 -2 -7 9 -16 10 -8 13 -12
5 -8 -10 5 -12 3 -5 -7 11 -17 15 -36 17 -72 1 -15 6 -27 10 -27 5 0 7 -6 4
-12 -2 -7 2 -25 10 -40 7 -15 13 -29 12 -30 -1 -2 4 -23 11 -48 7 -25 13 -51
13 -57 0 -7 4 -13 9 -13 4 0 8 -8 8 -19 0 -10 7 -35 15 -55 8 -20 13 -36 10
-36 -2 0 4 -16 15 -36 11 -19 16 -33 11 -30 -5 3 -4 -5 2 -18 7 -13 14 -23 17
-21 3 2 7 -4 8 -13 4 -41 10 -57 20 -55 6 2 9 -6 7 -16 -2 -11 3 -22 10 -25 8
-3 12 -14 10 -25 -2 -11 3 -22 12 -25 9 -4 13 -9 10 -12 -3 -4 1 -13 9 -21 8
-8 12 -19 9 -24 -4 -5 -1 -9 4 -9 6 0 11 -7 11 -15 0 -8 5 -15 10 -15 6 0 10
-7 10 -15 0 -8 5 -15 10 -15 6 0 10 -5 10 -11 0 -5 -6 -7 -12 -4 -7 4 -5 0 6
-9 10 -8 24 -24 30 -34 33 -57 68 -102 78 -102 6 0 8 -3 5 -6 -4 -4 12 -30 35
-58 45 -54 185 -196 194 -196 3 0 19 -14 36 -30 16 -17 33 -28 38 -25 4 3 10
-2 14 -10 3 -8 12 -15 21 -15 8 0 15 -6 15 -14 0 -10 7 -12 22 -8 14 3 19 2
14 -6 -4 -7 0 -15 8 -18 21 -8 20 -16 -6 -44 -13 -14 -22 -28 -21 -32 2 -5 -2
-8 -9 -8 -6 0 -9 -3 -5 -6 3 -4 0 -13 -8 -20 -17 -17 -29 -18 -18 -1 4 6 -6 4
-21 -7 -16 -10 -25 -13 -22 -7 10 15 -7 14 -22 -1 -7 -7 -12 -9 -12 -5 0 3
-11 2 -24 -3 -15 -5 -27 -5 -35 3 -8 8 -11 8 -11 -2 0 -7 -4 -9 -10 -6 -5 3
-10 0 -10 -7 0 -10 -2 -10 -9 1 -6 10 -10 10 -16 1 -6 -9 -10 -9 -16 1 -7 11
-9 11 -9 -2 0 -12 -8 -14 -31 -11 -18 3 -29 1 -26 -4 3 -6 -10 -9 -29 -9 -19
1 -34 -2 -34 -6 0 -5 -7 -6 -15 -3 -8 4 -15 1 -15 -7 0 -7 -3 -9 -7 -6 -3 4
-13 1 -21 -6 -13 -10 -14 -9 -7 2 5 10 4 12 -3 7 -7 -4 -21 -9 -32 -11 -12 -2
-33 -10 -49 -18 -15 -7 -37 -13 -49 -12 -11 1 -23 -4 -26 -12 -3 -7 -13 -13
-21 -13 -10 0 -13 -5 -9 -12 5 -9 2 -9 -9 1 -12 9 -17 10 -17 2 0 -7 -4 -9
-10 -6 -5 3 -10 1 -10 -5 0 -11 -48 -35 -64 -31 -5 1 -5 -6 -2 -16 4 -9 4 -14
0 -10 -4 4 -14 1 -22 -6 -13 -9 -14 -9 -8 1 4 6 2 12 -3 12 -6 0 -11 -3 -11
-7 0 -5 -18 -28 -39 -53 -22 -24 -37 -49 -34 -54 4 -5 -1 -7 -11 -3 -11 4 -15
3 -11 -4 4 -5 -3 -19 -16 -30 -12 -10 -19 -19 -15 -19 4 0 -3 -10 -15 -22 -11
-13 -25 -33 -30 -46 -5 -13 -14 -20 -20 -16 -8 4 -9 -1 -4 -16 5 -14 3 -20 -3
-16 -6 3 -13 -7 -17 -25 -4 -17 -13 -33 -21 -36 -8 -3 -14 -14 -14 -24 0 -11
-10 -24 -22 -29 -13 -5 -17 -9 -10 -9 18 -1 15 -19 -8 -38 -14 -13 -16 -19 -7
-25 9 -6 9 -8 0 -8 -7 0 -13 -6 -13 -13 0 -7 -9 -23 -20 -35 -12 -12 -17 -22
-11 -22 5 0 7 -9 4 -20 -3 -11 -10 -20 -15 -20 -6 0 -7 -7 -4 -16 3 -8 2 -12
-4 -9 -9 5 -12 -8 -9 -31 0 -4 -4 -10 -10 -13 -6 -4 -13 -18 -15 -31 -2 -14
-5 -26 -7 -27 -1 -2 -2 -6 -4 -10 -1 -5 -7 -21 -14 -37 -6 -16 -10 -35 -7 -42
3 -7 -2 -15 -9 -18 -8 -3 -12 -12 -9 -21 6 -13 229 -15 2138 -15 1889 0 2133
2 2133 15 0 8 -4 15 -9 15 -4 0 -7 3 -7 8 4 24 -3 52 -16 65 -8 8 -11 17 -8
20 9 9 -37 127 -49 127 -5 0 -8 5 -8 11 0 5 5 7 11 3 8 -4 8 0 0 15 -7 11 -14
21 -17 21 -3 0 -2 -6 2 -12 4 -7 3 -9 -1 -5 -5 4 -10 15 -11 23 -1 9 -6 23
-10 32 -4 9 -8 23 -10 31 -1 8 -7 17 -12 20 -5 3 -8 14 -7 23 2 10 -2 16 -7
15 -6 -1 -18 19 -28 46 -9 26 -20 44 -23 40 -4 -3 -7 3 -7 15 0 12 -4 22 -10
22 -5 0 -10 6 -10 13 -1 6 -8 26 -16 42 -8 17 -12 21 -9 10 11 -35 -10 -2 -24
40 -8 21 -20 45 -28 53 -7 7 -11 18 -8 23 4 5 1 9 -5 9 -7 0 -9 7 -6 16 4 10
2 13 -6 8 -8 -5 -9 -2 -5 10 4 10 3 15 -3 11 -6 -3 -10 1 -10 9 0 9 -4 16 -10
16 -5 0 -10 7 -10 15 0 8 -9 19 -20 25 -11 6 -17 16 -14 22 4 7 3 8 -4 4 -7
-4 -12 -2 -12 3 0 6 -7 11 -15 11 -8 0 -15 5 -15 11 0 5 -4 7 -10 4 -5 -3 -10
-1 -10 5 0 6 -4 8 -10 5 -5 -3 -10 1 -10 9 0 9 -6 13 -14 10 -7 -3 -20 1 -27
8 -8 7 -21 13 -29 13 -8 0 -14 5 -13 12 2 7 -9 10 -30 7 -24 -4 -28 -2 -17 5
12 9 10 11 -10 12 -14 1 -31 2 -37 2 -7 -1 -13 3 -13 8 0 5 -11 9 -25 9 -14 0
-25 4 -25 10 0 5 -7 6 -17 3 -10 -4 -14 -2 -9 5 4 7 -1 10 -14 7 -11 -2 -20 1
-20 7 0 7 -4 7 -14 -1 -10 -9 -16 -8 -26 5 -9 10 -22 13 -37 9 -14 -3 -23 -1
-23 6 0 8 -5 8 -15 -1 -13 -11 -14 -10 -8 6 6 17 5 17 -10 5 -12 -9 -17 -10
-17 -2 0 7 -5 9 -10 6 -6 -4 -24 1 -41 9 -24 12 -28 12 -20 2 10 -12 6 -12
-24 -2 -20 7 -54 12 -76 11 -21 -1 -39 2 -39 7 0 4 -9 8 -20 8 -12 0 -20 7
-20 16 0 10 -5 14 -16 10 -9 -3 -12 -2 -8 5 3 6 -3 17 -15 25 -12 8 -21 19
-21 23 0 4 37 37 83 72 45 35 105 87 134 115 29 28 55 49 58 46 3 -3 5 0 5 7
0 6 20 32 45 56 24 25 42 45 38 45 -3 0 3 8 14 18 11 9 32 35 47 56 14 21 26
35 26 31 0 -4 38 49 84 118 46 69 88 122 92 119 4 -4 4 -2 0 5 -3 6 -2 14 4
18 6 4 8 10 5 15 -3 5 3 13 12 19 10 6 14 11 10 11 -5 0 -1 7 7 16 9 8 16 23
16 32 0 10 9 25 20 35 18 15 25 36 21 61 -1 5 5 6 14 3 11 -5 15 0 15 18 0 14
4 25 9 25 5 0 12 14 16 31 4 17 13 33 21 36 8 3 12 9 9 13 -3 5 1 15 9 23 8 8
13 17 10 20 -9 9 19 56 30 50 6 -3 8 -3 4 1 -3 4 -2 21 4 37 8 22 16 29 36 29
21 0 24 -2 12 -10 -10 -6 -11 -10 -2 -10 6 0 12 -6 12 -14 0 -8 15 -27 33 -43
18 -15 26 -23 17 -18 -13 9 -13 8 -1 -8 7 -9 19 -17 26 -17 7 0 18 -7 25 -15
7 -9 19 -14 27 -11 7 3 13 0 13 -6 0 -6 2 -9 6 -6 3 3 21 2 40 -2 23 -5 34 -4
34 4 0 7 3 6 9 -2 7 -11 9 -11 14 1 3 9 16 13 31 12 14 -2 26 1 26 6 0 6 5 7
10 4 6 -3 10 -1 10 5 0 6 5 8 12 4 7 -5 9 -2 5 9 -4 12 -1 15 14 12 11 -2 17
0 14 5 -6 10 13 50 30 62 6 5 4 8 -5 8 -12 1 -11 3 3 11 15 9 16 13 5 27 -11
13 -11 14 1 7 11 -6 13 -2 7 19 -4 15 -3 25 2 23 4 -3 9 3 9 14 1 11 -2 17 -6
15 -4 -3 -8 1 -8 9 0 8 4 12 9 9 4 -3 8 -2 9 3 0 4 2 16 4 26 2 9 0 15 -4 12
-4 -2 -8 2 -8 10 0 8 4 12 8 9 4 -2 10 0 14 6 3 5 1 10 -6 10 -8 0 -9 4 0 13
8 10 7 17 -1 25 -8 8 -8 12 -1 12 15 0 22 57 9 70 -8 8 -7 11 2 8 9 -2 15 10
17 36 3 21 10 45 17 53 7 9 13 21 14 27 0 6 2 17 2 24 1 8 7 10 15 6 6 -4 9
-4 5 1 -4 4 -2 15 5 23 10 13 9 14 -2 8 -9 -6 -8 -1 3 16 9 14 13 28 9 33 -5
4 -2 5 5 1 11 -6 17 5 13 27 -1 4 6 10 14 13 8 3 13 10 10 14 -3 5 -1 11 4 15
6 3 7 13 4 22 -4 11 -3 14 5 9 11 -6 17 5 13 27 0 4 3 7 8 7 5 0 8 8 7 18 0 9
4 16 9 15 10 -1 14 12 17 55 1 6 5 12 10 12 4 0 8 5 8 11 0 5 -4 8 -8 5 -5 -3
-9 1 -9 8 0 8 6 12 14 9 11 -4 16 13 12 43 0 4 3 10 8 13 21 15 32 48 20 61
-9 10 -9 11 1 6 12 -7 13 -4 15 57 0 17 5 35 11 40 8 5 7 10 -3 16 -8 5 -9 11
-3 15 6 3 10 15 9 26 -1 10 -4 17 -8 14 -4 -2 -10 3 -13 12 -3 8 -2 13 2 10 5
-3 9 1 9 8 0 8 -7 12 -15 8 -11 -4 -13 -2 -6 9 12 20 6 52 -14 67 -13 10 -13
12 -1 12 8 0 10 3 4 8 -6 4 -16 20 -23 35 -7 16 -21 31 -32 34 -11 3 -20 12
-20 19 0 8 -3 13 -7 13 -22 -4 -35 2 -30 14 3 8 -6 13 -27 14 -92 5 -116 8
-116 15 0 4 -3 7 -7 7 -21 -3 -33 2 -28 12 4 6 14 8 23 4 12 -4 12 -1 -4 16
-10 12 -14 19 -7 16 7 -4 15 5 22 25 14 39 14 38 -6 31 -16 -5 -15 -4 1 9 11
9 21 31 23 54 2 21 8 44 14 50 7 8 7 14 -1 19 -7 4 -7 12 0 24 5 10 6 21 3 25
-3 3 -1 6 5 6 6 0 9 7 6 15 -4 9 0 15 7 15 11 0 11 3 -1 10 -12 8 -12 10 -1
10 11 0 11 3 1 16 -8 8 -9 14 -4 13 21 -4 28 2 14 11 -10 6 -11 10 -2 10 6 0
12 5 12 11 0 5 -4 8 -8 5 -5 -3 -9 1 -9 9 0 8 4 12 8 10 4 -3 10 2 13 11 9 23
8 26 -6 18 -10 -6 -10 -5 -1 8 7 8 10 18 6 21 -3 4 -1 7 6 7 9 0 9 5 0 21 -9
17 -8 20 1 14 10 -6 12 -1 8 19 -3 14 -1 26 5 26 5 0 3 8 -4 17 -10 11 -10 14
-1 9 8 -5 12 2 12 23 0 18 5 31 13 31 8 0 8 3 -2 9 -12 8 -12 12 -2 25 11 13
11 16 0 16 -12 0 -12 2 0 9 8 5 11 16 8 24 -3 8 2 25 10 38 11 15 12 20 3 14
-10 -6 -12 -4 -5 11 4 10 8 26 9 36 1 9 9 25 17 35 13 17 13 17 -4 4 -17 -13
-18 -12 -12 10 3 13 7 39 9 57 2 18 6 36 10 39 3 3 0 13 -7 21 -10 13 -9 14 2
8 11 -7 13 -1 9 28 -3 28 0 36 12 36 12 0 13 2 1 9 -8 5 -10 14 -6 21 4 7 2
16 -6 21 -11 7 -11 9 -1 9 7 0 10 5 7 10 -3 6 0 10 7 10 9 0 9 3 -2 10 -13 9
-13 10 0 10 13 0 13 1 0 10 -13 9 -13 10 0 10 9 0 11 3 5 8 -11 8 -16 42 -6
42 4 0 7 17 8 38 2 83 8 132 17 132 5 0 3 6 -3 14 -9 11 -9 16 -1 21 7 4 10
15 7 25 -2 10 -1 24 4 31 4 7 3 22 -3 32 -8 15 -7 18 3 12 9 -6 11 -3 6 8 -3
9 -2 19 4 23 6 4 6 11 -2 20 -9 11 -8 14 2 14 11 0 11 2 -1 10 -13 9 -13 11 0
20 8 5 11 10 5 10 -5 0 -10 20 -10 44 0 27 3 42 10 39 5 -3 4 0 -2 8 -7 7 -13
17 -13 22 0 4 6 5 13 1 6 -4 3 2 -7 14 -12 14 -14 22 -7 22 7 0 9 5 4 13 -4 6
-6 20 -5 30 2 9 -1 17 -7 17 -6 0 -7 7 -4 17 5 12 3 14 -7 8 -9 -5 -11 -4 -6
4 4 6 2 19 -6 28 -11 14 -11 16 2 8 13 -8 13 -6 1 8 -7 9 -18 14 -24 10 -6 -3
-7 -1 -3 5 8 13 -5 43 -20 45 -5 1 -8 5 -6 10 1 4 -2 7 -6 7 -21 0 -54 40 -49
60 3 12 -1 24 -11 30 -14 8 -14 9 -2 10 12 0 12 2 2 9 -8 4 -13 11 -13 15 4
27 0 66 -7 62 -4 -2 -8 4 -8 15 0 10 5 19 11 19 5 0 3 5 -7 10 -10 6 -14 18
-11 30 3 11 1 20 -4 20 -5 0 -9 8 -10 18 -1 9 -10 35 -19 57 -10 22 -17 43
-16 48 1 4 -3 7 -10 7 -6 0 -8 3 -5 6 4 4 -3 15 -15 25 -14 13 -16 19 -7 19 8
0 4 7 -9 16 -12 8 -20 20 -16 25 3 5 2 9 -3 8 -21 -4 -32 3 -38 21 -4 11 -11
17 -17 14 -8 -5 -9 -1 -4 11 6 16 4 16 -11 4 -9 -8 -14 -9 -11 -4 3 6 -10 20
-29 32 -19 13 -31 17 -27 10 4 -6 -1 -5 -12 4 -25 20 -77 42 -69 29 3 -6 -1
-7 -9 -4 -9 3 -16 11 -16 16 0 6 -8 4 -17 -3 -11 -10 -14 -10 -9 -1 4 7 1 12
-8 12 -20 0 -67 40 -60 52 3 4 0 8 -5 8 -17 0 -51 33 -44 42 3 5 -4 12 -16 15
-12 3 -21 10 -21 15 0 5 -4 6 -10 3 -5 -3 -10 -1 -10 6 0 13 -38 49 -52 49 -4
0 -8 5 -8 11 0 16 -29 41 -39 34 -5 -3 -13 0 -17 6 -5 8 -3 9 6 4 9 -5 11 -4
6 3 -4 7 -14 12 -22 12 -8 0 -12 5 -9 10 3 6 -1 10 -9 10 -9 0 -16 5 -16 11 0
5 -4 7 -10 4 -5 -3 -10 1 -10 10 0 10 -5 13 -12 9 -8 -5 -9 -1 -4 12 5 14 4
16 -4 8 -9 -9 -18 -5 -38 13 -15 13 -34 31 -43 39 -9 8 -21 14 -28 14 -7 0 -9
5 -5 12 5 7 0 9 -14 6 -14 -4 -19 -2 -16 7 3 7 -8 18 -25 25 -17 7 -31 17 -31
22 0 5 -4 6 -10 3 -5 -3 -10 -1 -10 5 0 6 -5 8 -12 4 -7 -5 -9 -2 -6 8 5 11 0
14 -18 10 -17 -3 -24 0 -24 11 0 10 -7 15 -20 12 -12 -2 -20 2 -20 10 0 7 -7
16 -16 19 -10 4 -13 2 -8 -7 4 -6 -4 -2 -18 11 -13 12 -32 22 -41 22 -9 0 -17
5 -17 11 0 5 -4 8 -9 4 -5 -3 -12 -1 -16 4 -3 6 -13 7 -22 4 -11 -4 -14 -3 -9
5 5 8 -1 12 -18 12 -14 0 -26 5 -26 11 0 5 -4 7 -10 4 -5 -3 -10 -2 -10 4 0 5
-8 8 -17 7 -10 -2 -33 6 -52 16 -25 14 -36 16 -41 8 -6 -9 -9 -9 -11 -1 -2 6
-17 14 -34 17 -16 3 -36 11 -44 17 -12 10 -13 9 -7 -2 6 -9 5 -12 -5 -9 -8 3
-13 10 -12 15 1 5 -4 10 -12 10 -8 0 -12 -3 -10 -7 2 -4 -2 -7 -10 -7 -8 0
-12 4 -10 7 6 9 -54 22 -66 14 -5 -3 -9 0 -9 6 0 8 -6 7 -21 -1 -12 -6 -19 -7
-15 -1 5 9 -49 18 -157 27 -27 2 -54 9 -61 15 -10 7 -16 7 -24 -3z m27 -20 c0
-9 -2 -8 -6 1 -2 6 -10 9 -15 6 -7 -4 -8 -2 -4 5 9 13 26 5 25 -12z m-1959
-1231 c0 -3 -4 -8 -10 -11 -5 -3 -10 -1 -10 4 0 6 5 11 10 11 6 0 10 -2 10 -4z
m-183 -1578 c-3 -8 -6 -5 -6 6 -1 11 2 17 5 13 3 -3 4 -12 1 -19z"/>
</g>
</svg>
